<?xml version="1.0" encoding="utf-8" ?>
<svg xmlns="http://www.w3.org/2000/svg" xmlns:ev="http://www.w3.org/2001/xml-events" xmlns:xlink="http://www.w3.org/1999/xlink" aria-label="Figure 1A challenge diagram" baseProfile="full" height="900" role="img" version="1.1" viewBox="0 0 1600 900" width="1600">
  <defs>
    <marker id="arrowHead" markerHeight="9" markerUnits="strokeWidth" markerWidth="12" orient="auto" refX="10" refY="4.5">
      <path d="M0,0 L11,4.5 L0,9 z" fill="#B8C0CA"/>
    </marker>
  </defs>
  <rect fill="#FFFFFF" height="900" width="1600" x="0" y="0"/>
  <text dominant-baseline="middle" fill="#232323" font-family="Arial, Helvetica, sans-serif" font-size="42" font-weight="700" text-anchor="start" x="64" y="70">A</text>
  <text dominant-baseline="middle" fill="#232323" font-family="Arial, Helvetica, sans-serif" font-size="34" font-weight="700" text-anchor="middle" x="800.0" y="63">Challenge of essential gene prediction</text>
  <text dominant-baseline="middle" fill="#5A5F66" font-family="Arial, Helvetica, sans-serif" font-size="28" font-weight="600" text-anchor="middle" x="800.0" y="105">in a non-model fungal pathogen</text>
  <rect fill="#D8DEE7" height="560" opacity="0.35" rx="24" ry="24" width="510" x="98" y="200"/>
  <rect fill="#FFFFFF" height="560" rx="24" ry="24" stroke="#C7CDD4" stroke-width="1.6" width="510" x="90" y="190"/>
  <rect fill="#E9F2FB" height="62" rx="24" ry="24" stroke="none" width="510" x="90" y="190"/>
  <rect fill="#E9F2FB" height="24" stroke="none" width="510" x="90" y="228"/>
  <line stroke="#C7CDD4" stroke-width="1.2" x1="90" x2="600" y1="252" y2="252"/>
  <text dominant-baseline="middle" fill="#232323" font-family="Arial, Helvetica, sans-serif" font-size="20" font-weight="700" text-anchor="middle" x="345.0" y="222">S. cerevisiae essential genes</text>
  <line opacity="0.72" stroke="#A7B0BA" stroke-linecap="round" stroke-width="2.2" x1="220" x2="320" y1="366" y2="342"/>
  <line opacity="0.72" stroke="#A7B0BA" stroke-linecap="round" stroke-width="2.2" x1="220" x2="373" y1="366" y2="490"/>
  <line opacity="0.72" stroke="#A7B0BA" stroke-linecap="round" stroke-width="2.2" x1="320" x2="426" y1="342" y2="372"/>
  <line opacity="0.72" stroke="#A7B0BA" stroke-linecap="round" stroke-width="2.2" x1="426" x2="503" y1="372" y2="458"/>
  <line opacity="0.72" stroke="#A7B0BA" stroke-linecap="round" stroke-width="2.2" x1="426" x2="373" y1="372" y2="490"/>
  <line opacity="0.72" stroke="#A7B0BA" stroke-linecap="round" stroke-width="2.2" x1="503" x2="538" y1="458" y2="574"/>
  <line opacity="0.72" stroke="#A7B0BA" stroke-linecap="round" stroke-width="2.2" x1="373" x2="244" y1="490" y2="520"/>
  <line opacity="0.72" stroke="#A7B0BA" stroke-linecap="round" stroke-width="2.2" x1="373" x2="314" y1="490" y2="615"/>
  <line opacity="0.72" stroke="#A7B0BA" stroke-linecap="round" stroke-width="2.2" x1="373" x2="460" y1="490" y2="602"/>
  <line opacity="0.72" stroke="#A7B0BA" stroke-linecap="round" stroke-width="2.2" x1="314" x2="460" y1="615" y2="602"/>
  <line opacity="0.72" stroke="#A7B0BA" stroke-linecap="round" stroke-width="2.2" x1="460" x2="538" y1="602" y2="574"/>
  <circle cx="220" cy="366" fill="#4F8BCB" r="20" stroke="#FFFFFF" stroke-width="2.2"/>
  <text dominant-baseline="middle" fill="#FFFFFF" font-family="Arial, Helvetica, sans-serif" font-size="11" font-weight="700" text-anchor="middle" x="220" y="367">E</text>
  <circle cx="320" cy="342" fill="#DADFE5" r="16" stroke="#AEB6BF" stroke-width="2.2"/>
  <circle cx="426" cy="372" fill="#4F8BCB" r="19" stroke="#FFFFFF" stroke-width="2.2"/>
  <text dominant-baseline="middle" fill="#FFFFFF" font-family="Arial, Helvetica, sans-serif" font-size="11" font-weight="700" text-anchor="middle" x="426" y="373">E</text>
  <circle cx="503" cy="458" fill="#DADFE5" r="15" stroke="#AEB6BF" stroke-width="2.2"/>
  <circle cx="373" cy="490" fill="#4F8BCB" r="22" stroke="#FFFFFF" stroke-width="2.2"/>
  <text dominant-baseline="middle" fill="#FFFFFF" font-family="Arial, Helvetica, sans-serif" font-size="11" font-weight="700" text-anchor="middle" x="373" y="491">E</text>
  <circle cx="244" cy="520" fill="#DADFE5" r="15" stroke="#AEB6BF" stroke-width="2.2"/>
  <circle cx="314" cy="615" fill="#4F8BCB" r="18" stroke="#FFFFFF" stroke-width="2.2"/>
  <text dominant-baseline="middle" fill="#FFFFFF" font-family="Arial, Helvetica, sans-serif" font-size="11" font-weight="700" text-anchor="middle" x="314" y="616">E</text>
  <circle cx="460" cy="602" fill="#DADFE5" r="16" stroke="#AEB6BF" stroke-width="2.2"/>
  <circle cx="538" cy="574" fill="#4F8BCB" r="18" stroke="#FFFFFF" stroke-width="2.2"/>
  <text dominant-baseline="middle" fill="#FFFFFF" font-family="Arial, Helvetica, sans-serif" font-size="11" font-weight="700" text-anchor="middle" x="538" y="575">E</text>
  <circle cx="195" cy="694" fill="#4F8BCB" r="9" stroke="#FFFFFF" stroke-width="1.4"/>
  <text dominant-baseline="middle" fill="#5A5F66" font-family="Arial, Helvetica, sans-serif" font-size="15" font-weight="500" text-anchor="start" x="213" y="695">Essential</text>
  <circle cx="367" cy="694" fill="#DADFE5" r="9" stroke="#AEB6BF" stroke-width="1.4"/>
  <text dominant-baseline="middle" fill="#5A5F66" font-family="Arial, Helvetica, sans-serif" font-size="15" font-weight="500" text-anchor="start" x="385" y="695">Non-essential</text>
  <text dominant-baseline="middle" fill="#232323" font-family="Arial, Helvetica, sans-serif" font-size="21" font-weight="700" text-anchor="middle" x="800.0" y="208">Transfer / annotation gap</text>
  <line marker-end="url(#arrowHead)" stroke="#B8C0CA" stroke-dasharray="8 8" stroke-width="2.2" x1="605" x2="650" y1="470" y2="470"/>
  <line marker-end="url(#arrowHead)" stroke="#B8C0CA" stroke-dasharray="8 8" stroke-width="2.2" x1="950" x2="995" y1="470" y2="470"/>
  <rect fill="#FFFFFF" height="78" rx="18" ry="18" stroke="#C8CFD8" stroke-width="1.4" width="300" x="650" y="282"/>
  <text dominant-baseline="middle" fill="#5A5F66" font-family="Arial, Helvetica, sans-serif" font-size="17" font-weight="600" text-anchor="middle" x="800.0" y="322">uncertain labels</text>
  <rect fill="#FFFFFF" height="78" rx="18" ry="18" stroke="#C8CFD8" stroke-width="1.4" width="300" x="650" y="407"/>
  <text dominant-baseline="middle" fill="#5A5F66" font-family="Arial, Helvetica, sans-serif" font-size="17" font-weight="600" text-anchor="middle" x="800.0" y="447">incomplete orthology transfer</text>
  <rect fill="#FFFFFF" height="78" rx="18" ry="18" stroke="#C8CFD8" stroke-width="1.4" width="300" x="650" y="532"/>
  <text dominant-baseline="middle" fill="#5A5F66" font-family="Arial, Helvetica, sans-serif" font-size="17" font-weight="600" text-anchor="middle" x="800.0" y="572">sparse pathogen-specific annotations</text>
  <rect fill="#D8DEE7" height="560" opacity="0.35" rx="24" ry="24" width="510" x="1008" y="200"/>
  <rect fill="#FFFFFF" height="560" rx="24" ry="24" stroke="#C7CDD4" stroke-width="1.6" width="510" x="1000" y="190"/>
  <rect fill="#FCECEC" height="62" rx="24" ry="24" stroke="none" width="510" x="1000" y="190"/>
  <rect fill="#FCECEC" height="24" stroke="none" width="510" x="1000" y="228"/>
  <line stroke="#C7CDD4" stroke-width="1.2" x1="1000" x2="1510" y1="252" y2="252"/>
  <text dominant-baseline="middle" fill="#232323" font-family="Arial, Helvetica, sans-serif" font-size="20" font-weight="700" text-anchor="middle" x="1255.0" y="222">Fusarium graminearum genome-wide prediction</text>
  <line opacity="0.72" stroke="#A7B0BA" stroke-linecap="round" stroke-width="2.2" x1="1120" x2="1208" y1="384" y2="348"/>
  <line opacity="0.72" stroke="#A7B0BA" stroke-linecap="round" stroke-width="2.2" x1="1208" x2="1317" y1="348" y2="375"/>
  <line opacity="0.72" stroke="#A7B0BA" stroke-linecap="round" stroke-width="2.2" x1="1208" x2="1278" y1="348" y2="496"/>
  <line opacity="0.72" stroke="#A7B0BA" stroke-linecap="round" stroke-width="2.2" x1="1317" x2="1430" y1="375" y2="360"/>
  <line opacity="0.72" stroke="#A7B0BA" stroke-linecap="round" stroke-width="2.2" x1="1317" x2="1278" y1="375" y2="496"/>
  <line opacity="0.72" stroke="#A7B0BA" stroke-linecap="round" stroke-width="2.2" x1="1430" x2="1398" y1="360" y2="505"/>
  <line opacity="0.72" stroke="#A7B0BA" stroke-linecap="round" stroke-width="2.2" x1="1155" x2="1278" y1="510" y2="496"/>
  <line opacity="0.72" stroke="#A7B0BA" stroke-linecap="round" stroke-width="2.2" x1="1278" x2="1398" y1="496" y2="505"/>
  <line opacity="0.72" stroke="#A7B0BA" stroke-linecap="round" stroke-width="2.2" x1="1278" x2="1222" y1="496" y2="615"/>
  <line opacity="0.72" stroke="#A7B0BA" stroke-linecap="round" stroke-width="2.2" x1="1278" x2="1345" y1="496" y2="623"/>
  <line opacity="0.72" stroke="#A7B0BA" stroke-linecap="round" stroke-width="2.2" x1="1398" x2="1460" y1="505" y2="600"/>
  <line opacity="0.72" stroke="#A7B0BA" stroke-linecap="round" stroke-width="2.2" x1="1345" x2="1460" y1="623" y2="600"/>
  <circle cx="1120" cy="384" fill="#DADFE5" r="14" stroke="#AEB6BF" stroke-width="2.2"/>
  <circle cx="1208" cy="348" fill="#D85F5A" r="18" stroke="#FFFFFF" stroke-width="2.2"/>
  <text dominant-baseline="middle" fill="#FFFFFF" font-family="Arial, Helvetica, sans-serif" font-size="11" font-weight="700" text-anchor="middle" x="1208" y="349">P</text>
  <circle cx="1317" cy="375" fill="#DADFE5" r="14" stroke="#AEB6BF" stroke-width="2.2"/>
  <circle cx="1430" cy="360" fill="#D85F5A" r="20" stroke="#FFFFFF" stroke-width="2.2"/>
  <text dominant-baseline="middle" fill="#FFFFFF" font-family="Arial, Helvetica, sans-serif" font-size="11" font-weight="700" text-anchor="middle" x="1430" y="361">P</text>
  <circle cx="1155" cy="510" fill="#DADFE5" r="16" stroke="#AEB6BF" stroke-width="2.2"/>
  <circle cx="1278" cy="496" fill="#D85F5A" r="22" stroke="#FFFFFF" stroke-width="2.2"/>
  <text dominant-baseline="middle" fill="#FFFFFF" font-family="Arial, Helvetica, sans-serif" font-size="11" font-weight="700" text-anchor="middle" x="1278" y="497">P</text>
  <circle cx="1398" cy="505" fill="#DADFE5" r="15" stroke="#AEB6BF" stroke-width="2.2"/>
  <circle cx="1222" cy="615" fill="#DADFE5" r="15" stroke="#AEB6BF" stroke-width="2.2"/>
  <circle cx="1345" cy="623" fill="#D85F5A" r="19" stroke="#FFFFFF" stroke-width="2.2"/>
  <text dominant-baseline="middle" fill="#FFFFFF" font-family="Arial, Helvetica, sans-serif" font-size="11" font-weight="700" text-anchor="middle" x="1345" y="624">P</text>
  <circle cx="1460" cy="600" fill="#DADFE5" r="14" stroke="#AEB6BF" stroke-width="2.2"/>
  <circle cx="1098" cy="694" fill="#D85F5A" r="9" stroke="#FFFFFF" stroke-width="1.4"/>
  <text dominant-baseline="middle" fill="#5A5F66" font-family="Arial, Helvetica, sans-serif" font-size="15" font-weight="500" text-anchor="start" x="1116" y="695">Predicted essential</text>
  <circle cx="1270" cy="694" fill="#DADFE5" r="9" stroke="#AEB6BF" stroke-width="1.4"/>
  <text dominant-baseline="middle" fill="#5A5F66" font-family="Arial, Helvetica, sans-serif" font-size="15" font-weight="500" text-anchor="start" x="1288" y="695">Predicted non-essential</text>
</svg>
