<?xml version="1.0" encoding="UTF-8" standalone="no"?>
<!DOCTYPE svg PUBLIC "-//W3C//DTD SVG 1.1//EN"
 "http://www.w3.org/Graphics/SVG/1.1/DTD/svg11.dtd">
<!-- Generated by graphviz version 14.1.2 (20260126.1125)
 -->
<!-- Title: snakemake_dag Pages: 1 -->
<svg width="357pt" height="260pt"
 viewBox="0.00 0.00 357.00 260.00" xmlns="http://www.w3.org/2000/svg" xmlns:xlink="http://www.w3.org/1999/xlink">
<g id="graph0" class="graph" transform="scale(1 1) rotate(0) translate(4 256)">
<title>snakemake_dag</title>
<polygon fill="white" stroke="none" points="-4,4 -4,-256 352.71,-256 352.71,4 -4,4"/>
<!-- 0 -->
<g id="node1" class="node">
<title>0</title>
<path fill="none" stroke="#d85656" stroke-width="2" d="M127.21,-36C127.21,-36 97.21,-36 97.21,-36 91.21,-36 85.21,-30 85.21,-24 85.21,-24 85.21,-12 85.21,-12 85.21,-6 91.21,0 97.21,0 97.21,0 127.21,0 127.21,0 133.21,0 139.21,-6 139.21,-12 139.21,-12 139.21,-24 139.21,-24 139.21,-30 133.21,-36 127.21,-36"/>
<text xml:space="preserve" text-anchor="middle" x="112.21" y="-14.88" font-family="sans" font-size="10.00">all</text>
</g>
<!-- 1 -->
<g id="node2" class="node">
<title>1</title>
<path fill="none" stroke="#d8b456" stroke-width="2" stroke-dasharray="5,2" d="M195.71,-252C195.71,-252 134.71,-252 134.71,-252 128.71,-252 122.71,-246 122.71,-240 122.71,-240 122.71,-228 122.71,-228 122.71,-222 128.71,-216 134.71,-216 134.71,-216 195.71,-216 195.71,-216 201.71,-216 207.71,-222 207.71,-228 207.71,-228 207.71,-240 207.71,-240 207.71,-246 201.71,-252 195.71,-252"/>
<text xml:space="preserve" text-anchor="middle" x="165.21" y="-230.88" font-family="sans" font-size="10.00">build_figure5a</text>
</g>
<!-- 1&#45;&gt;0 -->
<g id="edge1" class="edge">
<title>1&#45;&gt;0</title>
<path fill="none" stroke="grey" stroke-width="2" d="M122.05,-231.32C85.6,-227.34 35.43,-215.28 10.21,-180 -22.9,-133.7 34.55,-76.92 75.79,-44.66"/>
<polygon fill="grey" stroke="grey" stroke-width="2" points="77.87,-47.48 83.72,-38.64 73.64,-41.9 77.87,-47.48"/>
</g>
<!-- 3 -->
<g id="node4" class="node">
<title>3</title>
<path fill="none" stroke="#9fd856" stroke-width="2" stroke-dasharray="5,2" d="M195.33,-180C195.33,-180 135.08,-180 135.08,-180 129.08,-180 123.08,-174 123.08,-168 123.08,-168 123.08,-156 123.08,-156 123.08,-150 129.08,-144 135.08,-144 135.08,-144 195.33,-144 195.33,-144 201.33,-144 207.33,-150 207.33,-156 207.33,-156 207.33,-168 207.33,-168 207.33,-174 201.33,-180 195.33,-180"/>
<text xml:space="preserve" text-anchor="middle" x="165.21" y="-158.88" font-family="sans" font-size="10.00">build_figure5c</text>
</g>
<!-- 1&#45;&gt;3 -->
<g id="edge6" class="edge">
<title>1&#45;&gt;3</title>
<path fill="none" stroke="grey" stroke-width="2" d="M165.21,-215.34C165.21,-208.75 165.21,-201.08 165.21,-193.67"/>
<polygon fill="grey" stroke="grey" stroke-width="2" points="168.71,-193.93 165.21,-183.93 161.71,-193.93 168.71,-193.93"/>
</g>
<!-- 5 -->
<g id="node6" class="node">
<title>5</title>
<path fill="none" stroke="#d88556" stroke-width="2" d="M258.58,-108C258.58,-108 151.83,-108 151.83,-108 145.83,-108 139.83,-102 139.83,-96 139.83,-96 139.83,-84 139.83,-84 139.83,-78 145.83,-72 151.83,-72 151.83,-72 258.58,-72 258.58,-72 264.58,-72 270.58,-78 270.58,-84 270.58,-84 270.58,-96 270.58,-96 270.58,-102 264.58,-108 258.58,-108"/>
<text xml:space="preserve" text-anchor="middle" x="205.21" y="-86.88" font-family="sans" font-size="10.00">build_figure5_summary</text>
</g>
<!-- 1&#45;&gt;5 -->
<g id="edge7" class="edge">
<title>1&#45;&gt;5</title>
<path fill="none" stroke="grey" stroke-width="2" d="M189.31,-215.11C199.68,-205.91 210.67,-193.74 216.21,-180 223.72,-161.36 220.86,-138.89 216.17,-121.19"/>
<polygon fill="grey" stroke="grey" stroke-width="2" points="219.52,-120.17 213.26,-111.62 212.83,-122.21 219.52,-120.17"/>
</g>
<!-- 2 -->
<g id="node3" class="node">
<title>2</title>
<path fill="none" stroke="#ced856" stroke-width="2" stroke-dasharray="5,2" d="M92.71,-180C92.71,-180 31.71,-180 31.71,-180 25.71,-180 19.71,-174 19.71,-168 19.71,-168 19.71,-156 19.71,-156 19.71,-150 25.71,-144 31.71,-144 31.71,-144 92.71,-144 92.71,-144 98.71,-144 104.71,-150 104.71,-156 104.71,-156 104.71,-168 104.71,-168 104.71,-174 98.71,-180 92.71,-180"/>
<text xml:space="preserve" text-anchor="middle" x="62.21" y="-158.88" font-family="sans" font-size="10.00">build_figure5b</text>
</g>
<!-- 2&#45;&gt;0 -->
<g id="edge2" class="edge">
<title>2&#45;&gt;0</title>
<path fill="none" stroke="grey" stroke-width="2" d="M68.54,-143.02C76.88,-119.33 91.66,-77.35 101.69,-48.86"/>
<polygon fill="grey" stroke="grey" stroke-width="2" points="104.9,-50.29 104.92,-39.69 98.3,-47.96 104.9,-50.29"/>
</g>
<!-- 2&#45;&gt;5 -->
<g id="edge8" class="edge">
<title>2&#45;&gt;5</title>
<path fill="none" stroke="grey" stroke-width="2" d="M98.66,-143.15C116.48,-134.43 138.15,-123.82 157.29,-114.46"/>
<polygon fill="grey" stroke="grey" stroke-width="2" points="158.66,-117.68 166.1,-110.14 155.58,-111.4 158.66,-117.68"/>
</g>
<!-- 3&#45;&gt;0 -->
<g id="edge3" class="edge">
<title>3&#45;&gt;0</title>
<path fill="none" stroke="grey" stroke-width="2" d="M151.52,-143.26C144.5,-133.36 136.36,-120.54 131.21,-108 123.53,-89.35 118.78,-67.16 115.96,-49.61"/>
<polygon fill="grey" stroke="grey" stroke-width="2" points="119.45,-49.34 114.55,-39.95 112.53,-50.35 119.45,-49.34"/>
</g>
<!-- 3&#45;&gt;5 -->
<g id="edge9" class="edge">
<title>3&#45;&gt;5</title>
<path fill="none" stroke="grey" stroke-width="2" d="M175.3,-143.34C179.34,-136.26 184.11,-127.92 188.63,-120"/>
<polygon fill="grey" stroke="grey" stroke-width="2" points="191.55,-121.95 193.47,-111.53 185.47,-118.48 191.55,-121.95"/>
</g>
<!-- 4 -->
<g id="node5" class="node">
<title>4</title>
<path fill="none" stroke="#70d856" stroke-width="2" stroke-dasharray="5,2" d="M336.71,-180C336.71,-180 275.71,-180 275.71,-180 269.71,-180 263.71,-174 263.71,-168 263.71,-168 263.71,-156 263.71,-156 263.71,-150 269.71,-144 275.71,-144 275.71,-144 336.71,-144 336.71,-144 342.71,-144 348.71,-150 348.71,-156 348.71,-156 348.71,-168 348.71,-168 348.71,-174 342.71,-180 336.71,-180"/>
<text xml:space="preserve" text-anchor="middle" x="306.21" y="-158.88" font-family="sans" font-size="10.00">build_figure5d</text>
</g>
<!-- 4&#45;&gt;0 -->
<g id="edge4" class="edge">
<title>4&#45;&gt;0</title>
<path fill="none" stroke="grey" stroke-width="2" d="M305.55,-143.17C303.87,-123.22 298.15,-91.19 279.21,-72 245.56,-37.92 190.14,-25.71 152.45,-21.36"/>
<polygon fill="grey" stroke="grey" stroke-width="2" points="153.23,-17.92 142.93,-20.43 152.54,-24.89 153.23,-17.92"/>
</g>
<!-- 4&#45;&gt;5 -->
<g id="edge10" class="edge">
<title>4&#45;&gt;5</title>
<path fill="none" stroke="grey" stroke-width="2" d="M280.46,-143.15C268.59,-134.93 254.29,-125.02 241.36,-116.06"/>
<polygon fill="grey" stroke="grey" stroke-width="2" points="243.61,-113.36 233.39,-110.54 239.62,-119.11 243.61,-113.36"/>
</g>
<!-- 5&#45;&gt;0 -->
<g id="edge5" class="edge">
<title>5&#45;&gt;0</title>
<path fill="none" stroke="grey" stroke-width="2" d="M181.74,-71.34C171.03,-63.27 158.13,-53.57 146.37,-44.72"/>
<polygon fill="grey" stroke="grey" stroke-width="2" points="148.5,-41.94 138.41,-38.72 144.29,-47.53 148.5,-41.94"/>
</g>
</g>
</svg>
